G04 #@! TF.GenerationSoftware,KiCad,Pcbnew,(5.1.8)-1*
G04 #@! TF.CreationDate,2023-07-01T22:25:39+09:00*
G04 #@! TF.ProjectId,TRRS,54525253-2e6b-4696-9361-645f70636258,rev?*
G04 #@! TF.SameCoordinates,PX9157080PY791ddc0*
G04 #@! TF.FileFunction,Legend,Top*
G04 #@! TF.FilePolarity,Positive*
%FSLAX46Y46*%
G04 Gerber Fmt 4.6, Leading zero omitted, Abs format (unit mm)*
G04 Created by KiCad (PCBNEW (5.1.8)-1) date 2023-07-01 22:25:39*
%MOMM*%
%LPD*%
G01*
G04 APERTURE LIST*
%ADD10C,0.150000*%
%ADD11C,0.120000*%
%ADD12C,0.300000*%
G04 APERTURE END LIST*
D10*
X19986666Y1817620D02*
X20320000Y817620D01*
X20653333Y1817620D01*
X18089523Y817620D02*
X17613333Y817620D01*
X17613333Y1817620D01*
X15549523Y817620D02*
X15216190Y1293810D01*
X14978095Y817620D02*
X14978095Y1817620D01*
X15359047Y1817620D01*
X15454285Y1770000D01*
X15501904Y1722381D01*
X15549523Y1627143D01*
X15549523Y1484286D01*
X15501904Y1389048D01*
X15454285Y1341429D01*
X15359047Y1293810D01*
X14978095Y1293810D01*
X12961904Y1770000D02*
X12866666Y1817620D01*
X12723809Y1817620D01*
X12580952Y1770000D01*
X12485714Y1674762D01*
X12438095Y1579524D01*
X12390476Y1389048D01*
X12390476Y1246191D01*
X12438095Y1055715D01*
X12485714Y960477D01*
X12580952Y865239D01*
X12723809Y817620D01*
X12819047Y817620D01*
X12961904Y865239D01*
X13009523Y912858D01*
X13009523Y1246191D01*
X12819047Y1246191D01*
X25813095Y19232620D02*
X25813095Y20232620D01*
X26146428Y19518334D01*
X26479761Y20232620D01*
X26479761Y19232620D01*
X27241666Y20232620D02*
X27241666Y19518334D01*
X27194047Y19375477D01*
X27098809Y19280239D01*
X26955952Y19232620D01*
X26860714Y19232620D01*
X27717857Y19613572D02*
X28479761Y19613572D01*
X29432142Y20232620D02*
X28955952Y20232620D01*
X28908333Y19756429D01*
X28955952Y19804048D01*
X29051190Y19851667D01*
X29289285Y19851667D01*
X29384523Y19804048D01*
X29432142Y19756429D01*
X29479761Y19661191D01*
X29479761Y19423096D01*
X29432142Y19327858D01*
X29384523Y19280239D01*
X29289285Y19232620D01*
X29051190Y19232620D01*
X28955952Y19280239D01*
X28908333Y19327858D01*
X29860714Y20137381D02*
X29908333Y20185000D01*
X30003571Y20232620D01*
X30241666Y20232620D01*
X30336904Y20185000D01*
X30384523Y20137381D01*
X30432142Y20042143D01*
X30432142Y19946905D01*
X30384523Y19804048D01*
X29813095Y19232620D01*
X30432142Y19232620D01*
X30765476Y20232620D02*
X31384523Y20232620D01*
X31051190Y19851667D01*
X31194047Y19851667D01*
X31289285Y19804048D01*
X31336904Y19756429D01*
X31384523Y19661191D01*
X31384523Y19423096D01*
X31336904Y19327858D01*
X31289285Y19280239D01*
X31194047Y19232620D01*
X30908333Y19232620D01*
X30813095Y19280239D01*
X30765476Y19327858D01*
X3080238Y7802620D02*
X3080238Y8802620D01*
X3413571Y8088334D01*
X3746904Y8802620D01*
X3746904Y7802620D01*
X4508809Y8802620D02*
X4508809Y8088334D01*
X4461190Y7945477D01*
X4365952Y7850239D01*
X4223095Y7802620D01*
X4127857Y7802620D01*
X4985000Y8183572D02*
X5746904Y8183572D01*
X6651666Y8469286D02*
X6651666Y7802620D01*
X6413571Y8850239D02*
X6175476Y8135953D01*
X6794523Y8135953D01*
X7175476Y7802620D02*
X7175476Y8802620D01*
X7556428Y8802620D01*
X7651666Y8755000D01*
X7699285Y8707381D01*
X7746904Y8612143D01*
X7746904Y8469286D01*
X7699285Y8374048D01*
X7651666Y8326429D01*
X7556428Y8278810D01*
X7175476Y8278810D01*
X8175476Y7802620D02*
X8175476Y8802620D01*
X8556428Y8802620D01*
X8651666Y8755000D01*
X8699285Y8707381D01*
X8746904Y8612143D01*
X8746904Y8469286D01*
X8699285Y8374048D01*
X8651666Y8326429D01*
X8556428Y8278810D01*
X8175476Y8278810D01*
X9175476Y8183572D02*
X9937380Y8183572D01*
X10461190Y7802620D02*
X10651666Y7802620D01*
X10746904Y7850239D01*
X10794523Y7897858D01*
X10889761Y8040715D01*
X10937380Y8231191D01*
X10937380Y8612143D01*
X10889761Y8707381D01*
X10842142Y8755000D01*
X10746904Y8802620D01*
X10556428Y8802620D01*
X10461190Y8755000D01*
X10413571Y8707381D01*
X10365952Y8612143D01*
X10365952Y8374048D01*
X10413571Y8278810D01*
X10461190Y8231191D01*
X10556428Y8183572D01*
X10746904Y8183572D01*
X10842142Y8231191D01*
X10889761Y8278810D01*
X10937380Y8374048D01*
X3080238Y20502620D02*
X3080238Y21502620D01*
X3413571Y20788334D01*
X3746904Y21502620D01*
X3746904Y20502620D01*
X4508809Y21502620D02*
X4508809Y20788334D01*
X4461190Y20645477D01*
X4365952Y20550239D01*
X4223095Y20502620D01*
X4127857Y20502620D01*
X4985000Y20883572D02*
X5746904Y20883572D01*
X6651666Y21169286D02*
X6651666Y20502620D01*
X6413571Y21550239D02*
X6175476Y20835953D01*
X6794523Y20835953D01*
X7175476Y20502620D02*
X7175476Y21502620D01*
X7556428Y21502620D01*
X7651666Y21455000D01*
X7699285Y21407381D01*
X7746904Y21312143D01*
X7746904Y21169286D01*
X7699285Y21074048D01*
X7651666Y21026429D01*
X7556428Y20978810D01*
X7175476Y20978810D01*
X8175476Y20502620D02*
X8175476Y21502620D01*
X8556428Y21502620D01*
X8651666Y21455000D01*
X8699285Y21407381D01*
X8746904Y21312143D01*
X8746904Y21169286D01*
X8699285Y21074048D01*
X8651666Y21026429D01*
X8556428Y20978810D01*
X8175476Y20978810D01*
X9175476Y20883572D02*
X9937380Y20883572D01*
X10461190Y20502620D02*
X10651666Y20502620D01*
X10746904Y20550239D01*
X10794523Y20597858D01*
X10889761Y20740715D01*
X10937380Y20931191D01*
X10937380Y21312143D01*
X10889761Y21407381D01*
X10842142Y21455000D01*
X10746904Y21502620D01*
X10556428Y21502620D01*
X10461190Y21455000D01*
X10413571Y21407381D01*
X10365952Y21312143D01*
X10365952Y21074048D01*
X10413571Y20978810D01*
X10461190Y20931191D01*
X10556428Y20883572D01*
X10746904Y20883572D01*
X10842142Y20931191D01*
X10889761Y20978810D01*
X10937380Y21074048D01*
X3080238Y33202620D02*
X3080238Y34202620D01*
X3413571Y33488334D01*
X3746904Y34202620D01*
X3746904Y33202620D01*
X4508809Y34202620D02*
X4508809Y33488334D01*
X4461190Y33345477D01*
X4365952Y33250239D01*
X4223095Y33202620D01*
X4127857Y33202620D01*
X4985000Y33583572D02*
X5746904Y33583572D01*
X6651666Y33869286D02*
X6651666Y33202620D01*
X6413571Y34250239D02*
X6175476Y33535953D01*
X6794523Y33535953D01*
X7175476Y33202620D02*
X7175476Y34202620D01*
X7556428Y34202620D01*
X7651666Y34155000D01*
X7699285Y34107381D01*
X7746904Y34012143D01*
X7746904Y33869286D01*
X7699285Y33774048D01*
X7651666Y33726429D01*
X7556428Y33678810D01*
X7175476Y33678810D01*
X8175476Y33202620D02*
X8175476Y34202620D01*
X8556428Y34202620D01*
X8651666Y34155000D01*
X8699285Y34107381D01*
X8746904Y34012143D01*
X8746904Y33869286D01*
X8699285Y33774048D01*
X8651666Y33726429D01*
X8556428Y33678810D01*
X8175476Y33678810D01*
X9175476Y33583572D02*
X9937380Y33583572D01*
X10461190Y33202620D02*
X10651666Y33202620D01*
X10746904Y33250239D01*
X10794523Y33297858D01*
X10889761Y33440715D01*
X10937380Y33631191D01*
X10937380Y34012143D01*
X10889761Y34107381D01*
X10842142Y34155000D01*
X10746904Y34202620D01*
X10556428Y34202620D01*
X10461190Y34155000D01*
X10413571Y34107381D01*
X10365952Y34012143D01*
X10365952Y33774048D01*
X10413571Y33678810D01*
X10461190Y33631191D01*
X10556428Y33583572D01*
X10746904Y33583572D01*
X10842142Y33631191D01*
X10889761Y33678810D01*
X10937380Y33774048D01*
X19216666Y34171191D02*
X19216666Y34647381D01*
X19502380Y34075953D02*
X18502380Y34409286D01*
X19502380Y34742620D01*
X18502380Y35075953D02*
X19311904Y35075953D01*
X19407142Y35123572D01*
X19454761Y35171191D01*
X19502380Y35266429D01*
X19502380Y35456905D01*
X19454761Y35552143D01*
X19407142Y35599762D01*
X19311904Y35647381D01*
X18502380Y35647381D01*
X19502380Y36123572D02*
X18502380Y36123572D01*
X18502380Y36361667D01*
X18550000Y36504524D01*
X18645238Y36599762D01*
X18740476Y36647381D01*
X18930952Y36695000D01*
X19073809Y36695000D01*
X19264285Y36647381D01*
X19359523Y36599762D01*
X19454761Y36504524D01*
X19502380Y36361667D01*
X19502380Y36123572D01*
X19502380Y37123572D02*
X18502380Y37123572D01*
X18502380Y37790239D02*
X18502380Y37980715D01*
X18550000Y38075953D01*
X18645238Y38171191D01*
X18835714Y38218810D01*
X19169047Y38218810D01*
X19359523Y38171191D01*
X19454761Y38075953D01*
X19502380Y37980715D01*
X19502380Y37790239D01*
X19454761Y37695000D01*
X19359523Y37599762D01*
X19169047Y37552143D01*
X18835714Y37552143D01*
X18645238Y37599762D01*
X18550000Y37695000D01*
X18502380Y37790239D01*
X26646666Y35790239D02*
X26789523Y35742620D01*
X27027619Y35742620D01*
X27122857Y35790239D01*
X27170476Y35837858D01*
X27218095Y35933096D01*
X27218095Y36028334D01*
X27170476Y36123572D01*
X27122857Y36171191D01*
X27027619Y36218810D01*
X26837142Y36266429D01*
X26741904Y36314048D01*
X26694285Y36361667D01*
X26646666Y36456905D01*
X26646666Y36552143D01*
X26694285Y36647381D01*
X26741904Y36695000D01*
X26837142Y36742620D01*
X27075238Y36742620D01*
X27218095Y36695000D01*
X27503809Y36742620D02*
X28075238Y36742620D01*
X27789523Y35742620D02*
X27789523Y36742620D01*
X28408571Y36123572D02*
X29170476Y36123572D01*
X29837142Y36742620D02*
X29932380Y36742620D01*
X30027619Y36695000D01*
X30075238Y36647381D01*
X30122857Y36552143D01*
X30170476Y36361667D01*
X30170476Y36123572D01*
X30122857Y35933096D01*
X30075238Y35837858D01*
X30027619Y35790239D01*
X29932380Y35742620D01*
X29837142Y35742620D01*
X29741904Y35790239D01*
X29694285Y35837858D01*
X29646666Y35933096D01*
X29599047Y36123572D01*
X29599047Y36361667D01*
X29646666Y36552143D01*
X29694285Y36647381D01*
X29741904Y36695000D01*
X29837142Y36742620D01*
X30789523Y36742620D02*
X30884761Y36742620D01*
X30980000Y36695000D01*
X31027619Y36647381D01*
X31075238Y36552143D01*
X31122857Y36361667D01*
X31122857Y36123572D01*
X31075238Y35933096D01*
X31027619Y35837858D01*
X30980000Y35790239D01*
X30884761Y35742620D01*
X30789523Y35742620D01*
X30694285Y35790239D01*
X30646666Y35837858D01*
X30599047Y35933096D01*
X30551428Y36123572D01*
X30551428Y36361667D01*
X30599047Y36552143D01*
X30646666Y36647381D01*
X30694285Y36695000D01*
X30789523Y36742620D01*
X32027619Y36742620D02*
X31551428Y36742620D01*
X31503809Y36266429D01*
X31551428Y36314048D01*
X31646666Y36361667D01*
X31884761Y36361667D01*
X31980000Y36314048D01*
X32027619Y36266429D01*
X32075238Y36171191D01*
X32075238Y35933096D01*
X32027619Y35837858D01*
X31980000Y35790239D01*
X31884761Y35742620D01*
X31646666Y35742620D01*
X31551428Y35790239D01*
X31503809Y35837858D01*
X32503809Y36123572D02*
X33265714Y36123572D01*
X34265714Y36695000D02*
X34170476Y36742620D01*
X34027619Y36742620D01*
X33884761Y36695000D01*
X33789523Y36599762D01*
X33741904Y36504524D01*
X33694285Y36314048D01*
X33694285Y36171191D01*
X33741904Y35980715D01*
X33789523Y35885477D01*
X33884761Y35790239D01*
X34027619Y35742620D01*
X34122857Y35742620D01*
X34265714Y35790239D01*
X34313333Y35837858D01*
X34313333Y36171191D01*
X34122857Y36171191D01*
X27241904Y10342620D02*
X27241904Y11342620D01*
X27575238Y10628334D01*
X27908571Y11342620D01*
X27908571Y10342620D01*
X28670476Y11342620D02*
X28670476Y10628334D01*
X28622857Y10485477D01*
X28527619Y10390239D01*
X28384761Y10342620D01*
X28289523Y10342620D01*
X29146666Y10723572D02*
X29908571Y10723572D01*
X30527619Y10914048D02*
X30432380Y10961667D01*
X30384761Y11009286D01*
X30337142Y11104524D01*
X30337142Y11152143D01*
X30384761Y11247381D01*
X30432380Y11295000D01*
X30527619Y11342620D01*
X30718095Y11342620D01*
X30813333Y11295000D01*
X30860952Y11247381D01*
X30908571Y11152143D01*
X30908571Y11104524D01*
X30860952Y11009286D01*
X30813333Y10961667D01*
X30718095Y10914048D01*
X30527619Y10914048D01*
X30432380Y10866429D01*
X30384761Y10818810D01*
X30337142Y10723572D01*
X30337142Y10533096D01*
X30384761Y10437858D01*
X30432380Y10390239D01*
X30527619Y10342620D01*
X30718095Y10342620D01*
X30813333Y10390239D01*
X30860952Y10437858D01*
X30908571Y10533096D01*
X30908571Y10723572D01*
X30860952Y10818810D01*
X30813333Y10866429D01*
X30718095Y10914048D01*
X31765714Y11009286D02*
X31765714Y10342620D01*
X31527619Y11390239D02*
X31289523Y10675953D01*
X31908571Y10675953D01*
X32194285Y11342620D02*
X32813333Y11342620D01*
X32480000Y10961667D01*
X32622857Y10961667D01*
X32718095Y10914048D01*
X32765714Y10866429D01*
X32813333Y10771191D01*
X32813333Y10533096D01*
X32765714Y10437858D01*
X32718095Y10390239D01*
X32622857Y10342620D01*
X32337142Y10342620D01*
X32241904Y10390239D01*
X32194285Y10437858D01*
X33718095Y11342620D02*
X33241904Y11342620D01*
X33194285Y10866429D01*
X33241904Y10914048D01*
X33337142Y10961667D01*
X33575238Y10961667D01*
X33670476Y10914048D01*
X33718095Y10866429D01*
X33765714Y10771191D01*
X33765714Y10533096D01*
X33718095Y10437858D01*
X33670476Y10390239D01*
X33575238Y10342620D01*
X33337142Y10342620D01*
X33241904Y10390239D01*
X33194285Y10437858D01*
X19216666Y8771191D02*
X19216666Y9247381D01*
X19502380Y8675953D02*
X18502380Y9009286D01*
X19502380Y9342620D01*
X18502380Y9675953D02*
X19311904Y9675953D01*
X19407142Y9723572D01*
X19454761Y9771191D01*
X19502380Y9866429D01*
X19502380Y10056905D01*
X19454761Y10152143D01*
X19407142Y10199762D01*
X19311904Y10247381D01*
X18502380Y10247381D01*
X19502380Y10723572D02*
X18502380Y10723572D01*
X18502380Y10961667D01*
X18550000Y11104524D01*
X18645238Y11199762D01*
X18740476Y11247381D01*
X18930952Y11295000D01*
X19073809Y11295000D01*
X19264285Y11247381D01*
X19359523Y11199762D01*
X19454761Y11104524D01*
X19502380Y10961667D01*
X19502380Y10723572D01*
X19502380Y11723572D02*
X18502380Y11723572D01*
X18502380Y12390239D02*
X18502380Y12580715D01*
X18550000Y12675953D01*
X18645238Y12771191D01*
X18835714Y12818810D01*
X19169047Y12818810D01*
X19359523Y12771191D01*
X19454761Y12675953D01*
X19502380Y12580715D01*
X19502380Y12390239D01*
X19454761Y12295000D01*
X19359523Y12199762D01*
X19169047Y12152143D01*
X18835714Y12152143D01*
X18645238Y12199762D01*
X18550000Y12295000D01*
X18502380Y12390239D01*
X7421190Y27757381D02*
X7897380Y27757381D01*
X7897380Y26757381D01*
X7087857Y27376429D02*
X6325952Y27376429D01*
X5992619Y26757381D02*
X5659285Y27757381D01*
X5325952Y26757381D01*
X4992619Y27376429D02*
X4230714Y27376429D01*
X3230714Y26805000D02*
X3325952Y26757381D01*
X3468809Y26757381D01*
X3611666Y26805000D01*
X3706904Y26900239D01*
X3754523Y26995477D01*
X3802142Y27185953D01*
X3802142Y27328810D01*
X3754523Y27519286D01*
X3706904Y27614524D01*
X3611666Y27709762D01*
X3468809Y27757381D01*
X3373571Y27757381D01*
X3230714Y27709762D01*
X3183095Y27662143D01*
X3183095Y27328810D01*
X3373571Y27328810D01*
X2754523Y27376429D02*
X1992619Y27376429D01*
X945000Y27757381D02*
X1278333Y27281191D01*
X1516428Y27757381D02*
X1516428Y26757381D01*
X1135476Y26757381D01*
X1040238Y26805000D01*
X992619Y26852620D01*
X945000Y26947858D01*
X945000Y27090715D01*
X992619Y27185953D01*
X1040238Y27233572D01*
X1135476Y27281191D01*
X1516428Y27281191D01*
X7421190Y15057381D02*
X7897380Y15057381D01*
X7897380Y14057381D01*
X7087857Y14676429D02*
X6325952Y14676429D01*
X5278333Y15057381D02*
X5611666Y14581191D01*
X5849761Y15057381D02*
X5849761Y14057381D01*
X5468809Y14057381D01*
X5373571Y14105000D01*
X5325952Y14152620D01*
X5278333Y14247858D01*
X5278333Y14390715D01*
X5325952Y14485953D01*
X5373571Y14533572D01*
X5468809Y14581191D01*
X5849761Y14581191D01*
X4849761Y14676429D02*
X4087857Y14676429D01*
X3087857Y14105000D02*
X3183095Y14057381D01*
X3325952Y14057381D01*
X3468809Y14105000D01*
X3564047Y14200239D01*
X3611666Y14295477D01*
X3659285Y14485953D01*
X3659285Y14628810D01*
X3611666Y14819286D01*
X3564047Y14914524D01*
X3468809Y15009762D01*
X3325952Y15057381D01*
X3230714Y15057381D01*
X3087857Y15009762D01*
X3040238Y14962143D01*
X3040238Y14628810D01*
X3230714Y14628810D01*
X2611666Y14676429D02*
X1849761Y14676429D01*
X1516428Y14057381D02*
X1183095Y15057381D01*
X849761Y14057381D01*
X7421190Y40457381D02*
X7897380Y40457381D01*
X7897380Y39457381D01*
X7087857Y40076429D02*
X6325952Y40076429D01*
X5278333Y40457381D02*
X5611666Y39981191D01*
X5849761Y40457381D02*
X5849761Y39457381D01*
X5468809Y39457381D01*
X5373571Y39505000D01*
X5325952Y39552620D01*
X5278333Y39647858D01*
X5278333Y39790715D01*
X5325952Y39885953D01*
X5373571Y39933572D01*
X5468809Y39981191D01*
X5849761Y39981191D01*
X4849761Y40076429D02*
X4087857Y40076429D01*
X3754523Y39457381D02*
X3421190Y40457381D01*
X3087857Y39457381D01*
X2754523Y40076429D02*
X1992619Y40076429D01*
X992619Y39505000D02*
X1087857Y39457381D01*
X1230714Y39457381D01*
X1373571Y39505000D01*
X1468809Y39600239D01*
X1516428Y39695477D01*
X1564047Y39885953D01*
X1564047Y40028810D01*
X1516428Y40219286D01*
X1468809Y40314524D01*
X1373571Y40409762D01*
X1230714Y40457381D01*
X1135476Y40457381D01*
X992619Y40409762D01*
X945000Y40362143D01*
X945000Y40028810D01*
X1135476Y40028810D01*
X10676190Y28487620D02*
X11247619Y28487620D01*
X10961904Y27487620D02*
X10961904Y28487620D01*
X11438095Y28487620D02*
X11771428Y27487620D01*
X12104761Y28487620D01*
X12295238Y28487620D02*
X12628571Y27487620D01*
X12961904Y28487620D01*
X13152380Y28487620D02*
X13723809Y28487620D01*
X13438095Y27487620D02*
X13438095Y28487620D01*
X14628571Y27487620D02*
X14295238Y27963810D01*
X14057142Y27487620D02*
X14057142Y28487620D01*
X14438095Y28487620D01*
X14533333Y28440000D01*
X14580952Y28392381D01*
X14628571Y28297143D01*
X14628571Y28154286D01*
X14580952Y28059048D01*
X14533333Y28011429D01*
X14438095Y27963810D01*
X14057142Y27963810D01*
X11961904Y14882858D02*
X11914285Y14835239D01*
X11771428Y14787620D01*
X11676190Y14787620D01*
X11533333Y14835239D01*
X11438095Y14930477D01*
X11390476Y15025715D01*
X11342857Y15216191D01*
X11342857Y15359048D01*
X11390476Y15549524D01*
X11438095Y15644762D01*
X11533333Y15740000D01*
X11676190Y15787620D01*
X11771428Y15787620D01*
X11914285Y15740000D01*
X11961904Y15692381D01*
X12247619Y15787620D02*
X12819047Y15787620D01*
X12533333Y14787620D02*
X12533333Y15787620D01*
X13152380Y14787620D02*
X13152380Y15787620D01*
X13580952Y15073334D02*
X14057142Y15073334D01*
X13485714Y14787620D02*
X13819047Y15787620D01*
X14152380Y14787620D01*
X11152380Y41187620D02*
X11342857Y41187620D01*
X11438095Y41140000D01*
X11533333Y41044762D01*
X11580952Y40854286D01*
X11580952Y40520953D01*
X11533333Y40330477D01*
X11438095Y40235239D01*
X11342857Y40187620D01*
X11152380Y40187620D01*
X11057142Y40235239D01*
X10961904Y40330477D01*
X10914285Y40520953D01*
X10914285Y40854286D01*
X10961904Y41044762D01*
X11057142Y41140000D01*
X11152380Y41187620D01*
X12009523Y40187620D02*
X12009523Y41187620D01*
X12342857Y40473334D01*
X12676190Y41187620D01*
X12676190Y40187620D01*
X13009523Y41187620D02*
X13580952Y41187620D01*
X13295238Y40187620D02*
X13295238Y41187620D01*
X13914285Y40187620D02*
X13914285Y41187620D01*
X14295238Y41187620D01*
X14390476Y41140000D01*
X14438095Y41092381D01*
X14485714Y40997143D01*
X14485714Y40854286D01*
X14438095Y40759048D01*
X14390476Y40711429D01*
X14295238Y40663810D01*
X13914285Y40663810D01*
X22312380Y21447381D02*
X23312380Y21780715D01*
X22312380Y22114048D01*
X23312380Y22447381D02*
X22312380Y22447381D01*
X23312380Y22923572D02*
X22312380Y22923572D01*
X22312380Y23161667D01*
X22360000Y23304524D01*
X22455238Y23399762D01*
X22550476Y23447381D01*
X22740952Y23495000D01*
X22883809Y23495000D01*
X23074285Y23447381D01*
X23169523Y23399762D01*
X23264761Y23304524D01*
X23312380Y23161667D01*
X23312380Y22923572D01*
X22788571Y23923572D02*
X22788571Y24256905D01*
X23312380Y24399762D02*
X23312380Y23923572D01*
X22312380Y23923572D01*
X22312380Y24399762D01*
X22312380Y25018810D02*
X22312380Y25209286D01*
X22360000Y25304524D01*
X22455238Y25399762D01*
X22645714Y25447381D01*
X22979047Y25447381D01*
X23169523Y25399762D01*
X23264761Y25304524D01*
X23312380Y25209286D01*
X23312380Y25018810D01*
X23264761Y24923572D01*
X23169523Y24828334D01*
X22979047Y24780715D01*
X22645714Y24780715D01*
X22455238Y24828334D01*
X22360000Y24923572D01*
X22312380Y25018810D01*
X20762976Y45108810D02*
X20715357Y45156429D01*
X20620119Y45204048D01*
X20524880Y45204048D01*
X20429642Y45156429D01*
X20382023Y45108810D01*
X20334404Y45013572D01*
X20334404Y44918334D01*
X20382023Y44823096D01*
X20429642Y44775477D01*
X20524880Y44727858D01*
X20620119Y44727858D01*
X20715357Y44775477D01*
X20762976Y44823096D01*
X20762976Y45204048D02*
X20762976Y44823096D01*
X20810595Y44775477D01*
X20858214Y44775477D01*
X20953452Y44823096D01*
X21001071Y44918334D01*
X21001071Y45156429D01*
X20905833Y45299286D01*
X20762976Y45394524D01*
X20572500Y45442143D01*
X20382023Y45394524D01*
X20239166Y45299286D01*
X20143928Y45156429D01*
X20096309Y44965953D01*
X20143928Y44775477D01*
X20239166Y44632620D01*
X20382023Y44537381D01*
X20572500Y44489762D01*
X20762976Y44537381D01*
X20905833Y44632620D01*
X21429642Y44632620D02*
X21429642Y45632620D01*
X21858214Y44632620D02*
X21858214Y45156429D01*
X21810595Y45251667D01*
X21715357Y45299286D01*
X21572500Y45299286D01*
X21477261Y45251667D01*
X21429642Y45204048D01*
X22477261Y44632620D02*
X22382023Y44680239D01*
X22334404Y44727858D01*
X22286785Y44823096D01*
X22286785Y45108810D01*
X22334404Y45204048D01*
X22382023Y45251667D01*
X22477261Y45299286D01*
X22620119Y45299286D01*
X22715357Y45251667D01*
X22762976Y45204048D01*
X22810595Y45108810D01*
X22810595Y44823096D01*
X22762976Y44727858D01*
X22715357Y44680239D01*
X22620119Y44632620D01*
X22477261Y44632620D01*
X23667738Y45299286D02*
X23667738Y44632620D01*
X23239166Y45299286D02*
X23239166Y44775477D01*
X23286785Y44680239D01*
X23382023Y44632620D01*
X23524880Y44632620D01*
X23620119Y44680239D01*
X23667738Y44727858D01*
X24143928Y44632620D02*
X24143928Y45299286D01*
X24143928Y45204048D02*
X24191547Y45251667D01*
X24286785Y45299286D01*
X24429642Y45299286D01*
X24524880Y45251667D01*
X24572500Y45156429D01*
X24572500Y44632620D01*
X24572500Y45156429D02*
X24620119Y45251667D01*
X24715357Y45299286D01*
X24858214Y45299286D01*
X24953452Y45251667D01*
X25001071Y45156429D01*
X25001071Y44632620D01*
X25858214Y44680239D02*
X25762976Y44632620D01*
X25572500Y44632620D01*
X25477261Y44680239D01*
X25429642Y44775477D01*
X25429642Y45156429D01*
X25477261Y45251667D01*
X25572500Y45299286D01*
X25762976Y45299286D01*
X25858214Y45251667D01*
X25905833Y45156429D01*
X25905833Y45061191D01*
X25429642Y44965953D01*
X26334404Y44632620D02*
X26334404Y45299286D01*
X26334404Y45632620D02*
X26286785Y45585000D01*
X26334404Y45537381D01*
X26382023Y45585000D01*
X26334404Y45632620D01*
X26334404Y45537381D01*
X13571547Y45632620D02*
X13904880Y44632620D01*
X14238214Y45632620D01*
X14762023Y45632620D02*
X14857261Y45632620D01*
X14952500Y45585000D01*
X15000119Y45537381D01*
X15047738Y45442143D01*
X15095357Y45251667D01*
X15095357Y45013572D01*
X15047738Y44823096D01*
X15000119Y44727858D01*
X14952500Y44680239D01*
X14857261Y44632620D01*
X14762023Y44632620D01*
X14666785Y44680239D01*
X14619166Y44727858D01*
X14571547Y44823096D01*
X14523928Y45013572D01*
X14523928Y45251667D01*
X14571547Y45442143D01*
X14619166Y45537381D01*
X14666785Y45585000D01*
X14762023Y45632620D01*
X16047738Y44632620D02*
X15476309Y44632620D01*
X15762023Y44632620D02*
X15762023Y45632620D01*
X15666785Y45489762D01*
X15571547Y45394524D01*
X15476309Y45346905D01*
X16952500Y44632620D02*
X16476309Y44632620D01*
X16476309Y45632620D01*
X17476309Y45632620D02*
X17571547Y45632620D01*
X17666785Y45585000D01*
X17714404Y45537381D01*
X17762023Y45442143D01*
X17809642Y45251667D01*
X17809642Y45013572D01*
X17762023Y44823096D01*
X17714404Y44727858D01*
X17666785Y44680239D01*
X17571547Y44632620D01*
X17476309Y44632620D01*
X17381071Y44680239D01*
X17333452Y44727858D01*
X17285833Y44823096D01*
X17238214Y45013572D01*
X17238214Y45251667D01*
X17285833Y45442143D01*
X17333452Y45537381D01*
X17381071Y45585000D01*
X17476309Y45632620D01*
X18762023Y44632620D02*
X18190595Y44632620D01*
X18476309Y44632620D02*
X18476309Y45632620D01*
X18381071Y45489762D01*
X18285833Y45394524D01*
X18190595Y45346905D01*
X8983452Y45632620D02*
X9554880Y45632620D01*
X9269166Y44632620D02*
X9269166Y45632620D01*
X10459642Y44632620D02*
X10126309Y45108810D01*
X9888214Y44632620D02*
X9888214Y45632620D01*
X10269166Y45632620D01*
X10364404Y45585000D01*
X10412023Y45537381D01*
X10459642Y45442143D01*
X10459642Y45299286D01*
X10412023Y45204048D01*
X10364404Y45156429D01*
X10269166Y45108810D01*
X9888214Y45108810D01*
X11459642Y44632620D02*
X11126309Y45108810D01*
X10888214Y44632620D02*
X10888214Y45632620D01*
X11269166Y45632620D01*
X11364404Y45585000D01*
X11412023Y45537381D01*
X11459642Y45442143D01*
X11459642Y45299286D01*
X11412023Y45204048D01*
X11364404Y45156429D01*
X11269166Y45108810D01*
X10888214Y45108810D01*
X11840595Y44680239D02*
X11983452Y44632620D01*
X12221547Y44632620D01*
X12316785Y44680239D01*
X12364404Y44727858D01*
X12412023Y44823096D01*
X12412023Y44918334D01*
X12364404Y45013572D01*
X12316785Y45061191D01*
X12221547Y45108810D01*
X12031071Y45156429D01*
X11935833Y45204048D01*
X11888214Y45251667D01*
X11840595Y45346905D01*
X11840595Y45442143D01*
X11888214Y45537381D01*
X11935833Y45585000D01*
X12031071Y45632620D01*
X12269166Y45632620D01*
X12412023Y45585000D01*
D11*
X20740000Y9745000D02*
X20740000Y11845000D01*
X27740000Y14245000D02*
X20740000Y14245000D01*
X27740000Y7345000D02*
X22640000Y7345000D01*
X32640000Y7345000D02*
X30140000Y7345000D01*
X32640000Y8095000D02*
X32640000Y7345000D01*
X32640000Y14245000D02*
X32640000Y13495000D01*
X30140000Y14245000D02*
X32640000Y14245000D01*
X24257000Y18034000D02*
X35306000Y18034000D01*
X24257000Y28956000D02*
X24257000Y18034000D01*
X35306000Y28956000D02*
X24257000Y28956000D01*
X35306000Y18034000D02*
X35306000Y28956000D01*
D12*
X34151000Y23495000D02*
G75*
G03*
X34151000Y23495000I-100000J0D01*
G01*
D11*
X4920000Y33095000D02*
X2420000Y33095000D01*
X2420000Y33095000D02*
X2420000Y33845000D01*
X2420000Y38545000D02*
X2420000Y39295000D01*
X2420000Y39295000D02*
X4920000Y39295000D01*
X9520000Y39295000D02*
X14620000Y39295000D01*
X5920000Y33095000D02*
X12920000Y33095000D01*
X14620000Y37195000D02*
X14620000Y35095000D01*
X21650000Y2480000D02*
X21650000Y5140000D01*
X13970000Y2480000D02*
X21650000Y2480000D01*
X13970000Y5140000D02*
X21650000Y5140000D01*
X13970000Y2480000D02*
X13970000Y5140000D01*
X12700000Y2480000D02*
X11370000Y2480000D01*
X11370000Y2480000D02*
X11370000Y3810000D01*
X4920000Y20395000D02*
X2420000Y20395000D01*
X2420000Y20395000D02*
X2420000Y21145000D01*
X2420000Y25845000D02*
X2420000Y26595000D01*
X2420000Y26595000D02*
X4920000Y26595000D01*
X9520000Y26595000D02*
X14620000Y26595000D01*
X5920000Y20395000D02*
X12920000Y20395000D01*
X14620000Y24495000D02*
X14620000Y22395000D01*
X4920000Y7695000D02*
X2420000Y7695000D01*
X2420000Y7695000D02*
X2420000Y8445000D01*
X2420000Y13145000D02*
X2420000Y13895000D01*
X2420000Y13895000D02*
X4920000Y13895000D01*
X9520000Y13895000D02*
X14620000Y13895000D01*
X5920000Y7695000D02*
X12920000Y7695000D01*
X14620000Y11795000D02*
X14620000Y9695000D01*
X20740000Y35145000D02*
X20740000Y37245000D01*
X27740000Y39645000D02*
X20740000Y39645000D01*
X27740000Y32745000D02*
X22640000Y32745000D01*
X32640000Y32745000D02*
X30140000Y32745000D01*
X32640000Y33495000D02*
X32640000Y32745000D01*
X32640000Y39645000D02*
X32640000Y38895000D01*
X30140000Y39645000D02*
X32640000Y39645000D01*
D10*
X23796666Y11342620D02*
X23796666Y10628334D01*
X23749047Y10485477D01*
X23653809Y10390239D01*
X23510952Y10342620D01*
X23415714Y10342620D01*
X24177619Y11342620D02*
X24844285Y11342620D01*
X24415714Y10342620D01*
X25699435Y27856285D02*
X25699435Y27137218D01*
X25651497Y26993405D01*
X25555622Y26897530D01*
X25411809Y26849592D01*
X25315933Y26849592D01*
X26658190Y27856285D02*
X26178813Y27856285D01*
X26130875Y27376907D01*
X26178813Y27424845D01*
X26274688Y27472783D01*
X26514377Y27472783D01*
X26610253Y27424845D01*
X26658190Y27376907D01*
X26706128Y27281032D01*
X26706128Y27041343D01*
X26658190Y26945467D01*
X26610253Y26897530D01*
X26514377Y26849592D01*
X26274688Y26849592D01*
X26178813Y26897530D01*
X26130875Y26945467D01*
X7286666Y36642620D02*
X7286666Y35928334D01*
X7239047Y35785477D01*
X7143809Y35690239D01*
X7000952Y35642620D01*
X6905714Y35642620D01*
X8286666Y35642620D02*
X7715238Y35642620D01*
X8000952Y35642620D02*
X8000952Y36642620D01*
X7905714Y36499762D01*
X7810476Y36404524D01*
X7715238Y36356905D01*
X10036666Y4357620D02*
X10036666Y3643334D01*
X9989047Y3500477D01*
X9893809Y3405239D01*
X9750952Y3357620D01*
X9655714Y3357620D01*
X10941428Y4024286D02*
X10941428Y3357620D01*
X10703333Y4405239D02*
X10465238Y3690953D01*
X11084285Y3690953D01*
X7286666Y23942620D02*
X7286666Y23228334D01*
X7239047Y23085477D01*
X7143809Y22990239D01*
X7000952Y22942620D01*
X6905714Y22942620D01*
X7667619Y23942620D02*
X8286666Y23942620D01*
X7953333Y23561667D01*
X8096190Y23561667D01*
X8191428Y23514048D01*
X8239047Y23466429D01*
X8286666Y23371191D01*
X8286666Y23133096D01*
X8239047Y23037858D01*
X8191428Y22990239D01*
X8096190Y22942620D01*
X7810476Y22942620D01*
X7715238Y22990239D01*
X7667619Y23037858D01*
X7286666Y11242620D02*
X7286666Y10528334D01*
X7239047Y10385477D01*
X7143809Y10290239D01*
X7000952Y10242620D01*
X6905714Y10242620D01*
X7715238Y11147381D02*
X7762857Y11195000D01*
X7858095Y11242620D01*
X8096190Y11242620D01*
X8191428Y11195000D01*
X8239047Y11147381D01*
X8286666Y11052143D01*
X8286666Y10956905D01*
X8239047Y10814048D01*
X7667619Y10242620D01*
X8286666Y10242620D01*
X23796666Y36742620D02*
X23796666Y36028334D01*
X23749047Y35885477D01*
X23653809Y35790239D01*
X23510952Y35742620D01*
X23415714Y35742620D01*
X24701428Y36742620D02*
X24510952Y36742620D01*
X24415714Y36695000D01*
X24368095Y36647381D01*
X24272857Y36504524D01*
X24225238Y36314048D01*
X24225238Y35933096D01*
X24272857Y35837858D01*
X24320476Y35790239D01*
X24415714Y35742620D01*
X24606190Y35742620D01*
X24701428Y35790239D01*
X24749047Y35837858D01*
X24796666Y35933096D01*
X24796666Y36171191D01*
X24749047Y36266429D01*
X24701428Y36314048D01*
X24606190Y36361667D01*
X24415714Y36361667D01*
X24320476Y36314048D01*
X24272857Y36266429D01*
X24225238Y36171191D01*
M02*
