G04 #@! TF.GenerationSoftware,KiCad,Pcbnew,(5.1.8)-1*
G04 #@! TF.CreationDate,2023-07-01T22:25:39+09:00*
G04 #@! TF.ProjectId,TRRS,54525253-2e6b-4696-9361-645f70636258,rev?*
G04 #@! TF.SameCoordinates,PX9157080PY791ddc0*
G04 #@! TF.FileFunction,Soldermask,Bot*
G04 #@! TF.FilePolarity,Negative*
%FSLAX46Y46*%
G04 Gerber Fmt 4.6, Leading zero omitted, Abs format (unit mm)*
G04 Created by KiCad (PCBNEW (5.1.8)-1) date 2023-07-01 22:25:39*
%MOMM*%
%LPD*%
G01*
G04 APERTURE LIST*
%ADD10C,1.900000*%
%ADD11R,1.900000X1.900000*%
%ADD12C,2.000000*%
%ADD13O,3.600000X1.800000*%
%ADD14O,2.100000X4.200000*%
%ADD15C,1.000000*%
%ADD16C,1.500000*%
%ADD17R,1.500000X1.500000*%
%ADD18O,1.700000X1.700000*%
%ADD19R,1.700000X1.700000*%
%ADD20C,1.300000*%
%ADD21C,3.200000*%
%ADD22C,0.800000*%
G04 APERTURE END LIST*
D10*
X21590000Y13045000D03*
D11*
X21590000Y8545000D03*
D10*
X27305000Y13589000D03*
X27305000Y8001000D03*
D12*
X34290000Y27940000D03*
X34290000Y19050000D03*
D13*
X26200000Y23495000D03*
D14*
X30800000Y23495000D03*
D15*
X4020000Y36195000D03*
X11020000Y36195000D03*
D16*
X8620000Y38495000D03*
D17*
X13820000Y33895000D03*
D16*
X5620000Y38495000D03*
X12620000Y38495000D03*
D18*
X20320000Y3810000D03*
X17780000Y3810000D03*
X15240000Y3810000D03*
D19*
X12700000Y3810000D03*
D15*
X4020000Y23495000D03*
X11020000Y23495000D03*
D16*
X8620000Y25795000D03*
D17*
X13820000Y21195000D03*
D16*
X5620000Y25795000D03*
X12620000Y25795000D03*
D15*
X4020000Y10795000D03*
X11020000Y10795000D03*
D16*
X8620000Y13095000D03*
D17*
X13820000Y8495000D03*
D16*
X5620000Y13095000D03*
X12620000Y13095000D03*
D20*
X25640000Y38695000D03*
X25640000Y33695000D03*
D10*
X21590000Y38445000D03*
D11*
X21590000Y33945000D03*
D10*
X29210000Y38989000D03*
X29210000Y33401000D03*
D21*
X32385000Y43815000D03*
X3175000Y43815000D03*
X32385000Y3175000D03*
X3175000Y3175000D03*
D22*
X27305000Y3810000D03*
X27305000Y41275000D03*
X19050000Y41275000D03*
X19050000Y23495000D03*
X8255000Y41275000D03*
M02*
