M48
; DRILL file {KiCad (5.1.8)-1} date 07/01/23 22:25:43
; FORMAT={3:3/ absolute / metric / suppress leading zeros}
; #@! TF.CreationDate,2023-07-01T22:25:43+09:00
; #@! TF.GenerationSoftware,Kicad,Pcbnew,(5.1.8)-1
FMAT,2
METRIC,TZ
T1C0.400
T2C1.000
T3C1.200
T4C1.300
T5C1.000
T6C1.300
T7C2.000
T8C3.200
%
G90
G05
T1
X8255Y41275
X19050Y41275
X19050Y23495
X27305Y41275
X27305Y3810
T2
X5620Y25795
X8620Y25795
X12620Y25795
X13820Y21195
X5620Y13095
X8620Y13095
X12620Y13095
X13820Y8495
X12700Y3810
X15240Y3810
X17780Y3810
X20320Y3810
X5620Y38495
X8620Y38495
X12620Y38495
X13820Y33895
T3
X21590Y13045
X21590Y8545
X27305Y13589
X27305Y8001
X21590Y38445
X21590Y33945
X29210Y38989
X29210Y33401
T5
X4020Y23495
X11020Y23495
X4020Y10795
X11020Y10795
X4020Y36195
X11020Y36195
T6
X25640Y38695
X25640Y33695
T7
X34290Y27940
X34290Y19050
T8
X32385Y43815
X3175Y43815
X32385Y3175
X3175Y3175
T2
G00X25450Y23495
M15
G01X26950Y23495
M16
G05
T4
G00X30800Y22895
M15
G01X30800Y24095
M16
G05
T0
M30
